<svg width="175" height="76" viewBox="0 0 175 76" fill="none" xmlns="http://www.w3.org/2000/svg">
<g clip-path="url(#clip0_49_1876)">
<path d="M24.7031 52.2178C24.7031 52.8558 24.4753 53.3799 24.0195 53.79C23.5866 54.2458 23.0511 54.4736 22.4131 54.4736H13.6289V56.627H22.2764C22.9144 56.627 23.4499 56.8434 23.8828 57.2764C24.3385 57.7093 24.5664 58.2562 24.5664 58.917C24.5664 59.555 24.3385 60.0791 23.8828 60.4893C23.4499 60.9222 22.9144 61.1387 22.2764 61.1387H13.6289V61.9932C13.6289 62.5628 13.8682 63.1097 14.3467 63.6338C14.8252 64.1351 15.486 64.3857 16.3291 64.3857H22.208C22.846 64.4085 23.3701 64.6478 23.7803 65.1035C24.2132 65.5592 24.4297 66.0947 24.4297 66.71C24.4069 67.3252 24.179 67.8493 23.7461 68.2822C23.3359 68.6924 22.8232 68.9089 22.208 68.9316H15.8506C14.1644 68.9544 12.5921 68.3164 11.1338 67.0176C9.69824 65.7188 8.98047 64.1465 8.98047 62.3008V61.1387H3.34082C2.7028 61.1387 2.15592 60.9336 1.7002 60.5234C1.26725 60.0905 1.05078 59.555 1.05078 58.917C1.05078 58.2562 1.26725 57.7093 1.7002 57.2764C2.15592 56.8434 2.7028 56.627 3.34082 56.627H8.98047V54.4736H3.47754C2.83952 54.4736 2.29264 54.2572 1.83691 53.8242C1.40397 53.3913 1.1875 52.8558 1.1875 52.2178C1.1875 51.5798 1.40397 51.0329 1.83691 50.5771C2.29264 50.167 2.83952 49.9619 3.47754 49.9619H8.98047C8.98047 49.3011 9.21973 48.7656 9.69824 48.3555C10.1768 47.9225 10.735 47.7061 11.373 47.7061C11.9883 47.7288 12.5124 47.9567 12.9453 48.3896C13.401 48.7998 13.6289 49.3239 13.6289 49.9619H22.4131C23.0511 49.9619 23.5866 50.1784 24.0195 50.6113C24.4753 51.0443 24.7031 51.5798 24.7031 52.2178ZM37.2812 48.1846C37.8509 48.4124 38.2725 48.7998 38.5459 49.3467C38.8193 49.8936 38.8649 50.4518 38.6826 51.0215L37.418 54.6104C37.7826 54.4508 38.1016 54.3711 38.375 54.3711H39.708C41.0296 54.3711 42.1689 54.7699 43.126 55.5674C44.083 56.3421 44.5729 57.4587 44.5957 58.917L44.5615 61.3438C44.4248 62.6198 44.6185 63.4515 45.1426 63.8389C45.6439 64.2262 46.3275 64.4427 47.1934 64.4883H49.9961C50.6341 64.5111 51.1582 64.7503 51.5684 65.2061C52.0013 65.639 52.2178 66.1631 52.2178 66.7783C52.195 67.3708 51.9671 67.8721 51.5342 68.2822C51.124 68.6924 50.6113 68.9089 49.9961 68.9316H46.0312C44.14 68.8405 42.6589 68.2025 41.5879 67.0176C40.5169 65.8099 39.9814 64.2376 39.9814 62.3008V60.5918C39.9814 59.5208 39.4574 58.974 38.4092 58.9512H37.7598C36.6432 58.974 35.652 60.0563 34.7861 62.1982L32.7012 68.1455C32.1087 69.376 31.1517 69.8203 29.8301 69.4785C29.2148 69.2734 28.7591 68.8975 28.4629 68.3506C28.1667 67.7809 28.1211 67.1999 28.3262 66.6074L34.3076 49.5176C34.5355 48.9251 34.9342 48.5036 35.5039 48.2529C36.0736 48.0023 36.666 47.9795 37.2812 48.1846ZM62.3691 47.5693C62.9844 47.7061 63.4629 48.0251 63.8047 48.5264C64.1693 49.0049 64.306 49.5404 64.2148 50.1328L64.1807 50.2695H68.9316C69.5697 50.2695 70.1165 50.4746 70.5723 50.8848C71.0052 51.3405 71.2217 51.8646 71.2217 52.457C71.2217 53.0495 71.0052 53.5622 70.5723 53.9951H77.2715C77.9095 53.9951 78.4564 54.2002 78.9121 54.6104C79.3451 55.0661 79.5615 55.5902 79.5615 56.1826C79.5615 56.7979 79.3337 57.3219 78.8779 57.7549C78.445 58.165 77.9095 58.3701 77.2715 58.3701H69.8203C69.1823 58.3701 68.6468 58.165 68.2139 57.7549C67.7581 57.3219 67.5303 56.7979 67.5303 56.1826C67.5303 55.613 67.7354 55.1117 68.1455 54.6787H63.4287L61.207 67.4619C60.8424 68.7835 59.9766 69.3874 58.6094 69.2734C57.9714 69.1595 57.4587 68.8519 57.0713 68.3506C56.6839 67.8493 56.5472 67.291 56.6611 66.6758L58.7461 54.6787H56.9688C56.3307 54.6787 55.7952 54.4622 55.3623 54.0293C54.9066 53.5736 54.6787 53.0495 54.6787 52.457C54.6787 51.8646 54.8952 51.3519 55.3281 50.9189C55.7839 50.486 56.3307 50.2695 56.9688 50.2695H59.498L59.6689 49.3467C59.8057 48.7314 60.1361 48.2529 60.6602 47.9111C61.1842 47.5693 61.7539 47.4554 62.3691 47.5693ZM63.9756 64.1123C63.8844 63.8617 63.8389 63.5882 63.8389 63.292C63.8389 62.6768 64.0553 62.1527 64.4883 61.7197C64.944 61.264 65.4795 61.0361 66.0947 61.0361C66.7327 61.0361 67.1771 61.1956 67.4277 61.5146C67.6784 61.8109 67.9404 62.1868 68.2139 62.6426C68.5557 63.1439 69.0456 63.5654 69.6836 63.9072C70.3216 64.249 71.0736 64.4427 71.9395 64.4883H77.6133C78.2513 64.5111 78.7754 64.7503 79.1855 65.2061C79.6185 65.639 79.835 66.1631 79.835 66.7783C79.8122 67.3708 79.5843 67.8721 79.1514 68.2822C78.7412 68.6924 78.2285 68.9089 77.6133 68.9316H70.7773C69.1595 68.8405 67.8037 68.3392 66.71 67.4277C65.6162 66.5163 64.887 65.7188 64.5225 65.0352L63.9756 64.1123ZM94.874 47.8428C96.0589 47.8428 97.221 47.9795 98.3604 48.2529C99.5225 48.5264 100.628 48.9365 101.676 49.4834C102.724 50.0075 103.67 50.7139 104.513 51.6025C105.356 52.4912 105.777 53.5508 105.777 54.7812V62.3008C105.777 64.3743 105.344 66.3568 104.479 68.248C103.818 69.4329 102.826 69.8089 101.505 69.376C100.935 69.1025 100.514 68.681 100.24 68.1113C99.9896 67.5417 99.9896 66.972 100.24 66.4023C100.833 65.0807 101.14 63.7135 101.163 62.3008V55.8408C101.118 55.1344 100.844 54.5534 100.343 54.0977C99.8643 53.6191 99.3288 53.2432 98.7363 52.9697C98.2122 52.7419 97.6882 52.5596 97.1641 52.4229V62.3691C97.1641 63.9642 96.7995 65.2858 96.0703 66.334C95.3411 67.3594 94.498 68.0999 93.541 68.5557C92.6068 68.9886 91.627 69.2051 90.6016 69.2051C89.6445 69.2051 88.6875 68.9772 87.7305 68.5215C86.7962 68.0658 85.9531 67.3252 85.2012 66.2998C84.4492 65.2744 84.0732 63.9642 84.0732 62.3691V62.1641V54.7812C84.0732 53.5508 84.472 52.4912 85.2695 51.6025C86.0898 50.7139 87.0241 50.0075 88.0723 49.4834C89.1204 48.9365 90.2142 48.5264 91.3535 48.2529C92.5156 47.9795 93.6891 47.8428 94.874 47.8428ZM88.585 62.5742C88.585 63.0072 88.6989 63.3717 88.9268 63.668C89.1774 63.9414 89.4395 64.1465 89.7129 64.2832C89.9863 64.4199 90.2712 64.4883 90.5674 64.4883C90.8408 64.4883 91.1257 64.4199 91.4219 64.2832C91.7409 64.1465 92.0029 63.9414 92.208 63.668C92.4359 63.3717 92.5612 63.0072 92.584 62.5742V52.4229C92.0599 52.5596 91.5472 52.7419 91.0459 52.9697C90.4307 53.2432 89.861 53.6191 89.3369 54.0977C88.8356 54.5534 88.585 55.1344 88.585 55.8408V62.5742Z" fill="white"/>
<path d="M141 43.58C140.253 43.58 139.693 43.3467 139.32 42.88C138.947 42.3667 138.76 41.8767 138.76 41.41V23.7C135.867 25.2867 133.347 26.6867 131.2 27.9C129.1 29.1133 127.14 30.35 125.32 31.61C123.547 32.8233 121.657 34.2933 119.65 36.02C119.323 36.3467 118.903 36.51 118.39 36.51C117.643 36.51 117.013 36.2533 116.5 35.74C116.173 35.4133 116.01 34.97 116.01 34.41C116.01 33.71 116.267 33.1033 116.78 32.59C117.807 31.5633 119.16 30.3967 120.84 29.09C122.567 27.7833 124.457 26.4767 126.51 25.17C128.61 23.8167 130.71 22.5567 132.81 21.39C134.957 20.2233 136.94 19.2667 138.76 18.52V16.84H119.37C118.717 16.84 118.18 16.63 117.76 16.21C117.34 15.7433 117.13 15.1833 117.13 14.53C117.13 13.9233 117.34 13.41 117.76 12.99C118.18 12.57 118.717 12.36 119.37 12.36H138.76V5.5C138.76 4.84666 138.97 4.31 139.39 3.89C139.81 3.47 140.347 3.26 141 3.26C141.607 3.26 142.12 3.47 142.54 3.89C142.96 4.31 143.17 4.84666 143.17 5.5V12.36H162.63C163.377 12.36 163.913 12.5933 164.24 13.06C164.613 13.5267 164.8 14.0167 164.8 14.53C164.8 15.23 164.59 15.79 164.17 16.21C163.797 16.63 163.283 16.84 162.63 16.84H143.17V20.62C145.643 21.0867 148.7 22.2767 152.34 24.19C156.027 26.1033 160.74 28.5533 166.48 31.54C166.807 31.7267 167.063 32.03 167.25 32.45C167.437 32.8233 167.53 33.1967 167.53 33.57C167.53 33.99 167.437 34.3633 167.25 34.69C167.063 35.0167 166.76 35.2733 166.34 35.46C165.967 35.6 165.593 35.67 165.22 35.67C164.753 35.67 164.427 35.5767 164.24 35.39C160.04 33.01 156.143 30.9567 152.55 29.23C148.957 27.4567 145.83 26.1267 143.17 25.24V41.41C143.17 42.1567 142.937 42.7167 142.47 43.09C142.003 43.4167 141.513 43.58 141 43.58ZM157.38 70.04C156.773 70.04 156.26 69.8067 155.84 69.34C155.467 68.92 155.28 68.3833 155.28 67.73V56.67C154.113 57.4167 152.807 58.28 151.36 59.26C149.96 60.24 148.677 61.15 147.51 61.99C146.39 62.8767 145.643 63.5067 145.27 63.88C144.943 64.0667 144.64 64.23 144.36 64.37C144.127 64.51 143.893 64.58 143.66 64.58C143.24 64.58 142.727 64.2767 142.12 63.67C141.7 63.25 141.49 62.76 141.49 62.2C141.49 61.5933 141.747 61.0333 142.26 60.52C142.913 60.0067 143.847 59.3067 145.06 58.42C146.273 57.5333 147.557 56.6233 148.91 55.69C150.263 54.71 151.523 53.8233 152.69 53.03C153.857 52.2367 154.72 51.6767 155.28 51.35V50.3H143.94C143.333 50.3 142.797 50.09 142.33 49.67C141.91 49.25 141.7 48.7367 141.7 48.13C141.7 47.3367 141.933 46.7533 142.4 46.38C142.867 46.0067 143.38 45.82 143.94 45.82H155.28V39.73C155.28 38.9833 155.513 38.4467 155.98 38.12C156.493 37.7467 156.983 37.56 157.45 37.56C158.103 37.56 158.64 37.77 159.06 38.19C159.48 38.5633 159.69 39.0767 159.69 39.73V45.82H170.61C171.263 45.82 171.8 46.0067 172.22 46.38C172.64 46.7533 172.85 47.3367 172.85 48.13C172.85 48.83 172.593 49.3667 172.08 49.74C171.613 50.1133 171.123 50.3 170.61 50.3H159.76V52.26C161.86 53.2867 163.563 54.1733 164.87 54.92C166.177 55.62 167.273 56.25 168.16 56.81C169.093 57.3233 169.933 57.86 170.68 58.42C171.473 58.98 172.36 59.61 173.34 60.31C174.04 60.9167 174.39 61.5467 174.39 62.2C174.39 62.62 174.25 63.04 173.97 63.46C173.55 64.1133 172.967 64.44 172.22 64.44C171.8 64.44 171.357 64.3233 170.89 64.09C169.957 63.25 168.743 62.3867 167.25 61.5C165.803 60.6133 164.38 59.7733 162.98 58.98C161.58 58.1867 160.483 57.58 159.69 57.16V67.73C159.69 68.3833 159.48 68.92 159.06 69.34C158.64 69.8067 158.08 70.04 157.38 70.04ZM124.69 70.04C124.037 70.04 123.5 69.83 123.08 69.41C122.66 68.99 122.45 68.4533 122.45 67.8V56.74C120.677 57.72 119.253 58.5833 118.18 59.33C117.107 60.1233 116.15 60.87 115.31 61.57C114.47 62.3167 113.513 63.11 112.44 63.95C111.973 64.3233 111.46 64.51 110.9 64.51C110.247 64.51 109.71 64.2767 109.29 63.81C108.87 63.2967 108.66 62.8067 108.66 62.34C108.66 61.78 108.94 61.22 109.5 60.66C110.993 59.0267 112.813 57.4867 114.96 56.04C117.107 54.5933 119.603 53.0533 122.45 51.42V50.37H111.04C110.293 50.37 109.733 50.1367 109.36 49.67C108.987 49.2033 108.8 48.7133 108.8 48.2C108.8 47.5467 109.01 47.01 109.43 46.59C109.85 46.1233 110.387 45.89 111.04 45.89H122.45V39.8C122.45 39.0533 122.707 38.5167 123.22 38.19C123.733 37.8167 124.223 37.63 124.69 37.63C125.343 37.63 125.88 37.84 126.3 38.26C126.72 38.6333 126.93 39.1467 126.93 39.8V45.89H137.71C138.457 45.89 139.017 46.1467 139.39 46.66C139.763 47.1267 139.95 47.64 139.95 48.2C139.95 48.8067 139.74 49.32 139.32 49.74C138.9 50.16 138.363 50.37 137.71 50.37H126.93V52.4C128.937 53.38 130.617 54.29 131.97 55.13C133.37 55.9233 134.653 56.74 135.82 57.58C136.987 58.3733 138.27 59.2833 139.67 60.31C140.323 60.6833 140.65 61.29 140.65 62.13C140.65 62.6433 140.51 63.0867 140.23 63.46C139.763 64.1133 139.157 64.44 138.41 64.44C137.943 64.44 137.523 64.3 137.15 64.02C135.283 62.5267 133.44 61.22 131.62 60.1C129.847 59.0267 128.283 58.0933 126.93 57.3V67.8C126.93 68.5467 126.673 69.1067 126.16 69.48C125.693 69.8533 125.203 70.04 124.69 70.04Z" fill="white"/>
</g>
<defs>
<clipPath id="clip0_49_1876">
<rect width="175" height="76" fill="white"/>
</clipPath>
</defs>
</svg>
